<svg width="1514" height="892" viewBox="0 0 1514 892" fill="none" xmlns="http://www.w3.org/2000/svg">
<rect width="1514" height="892" fill="#204379"/>
<path opacity="0.9" d="M41.1171 186.992C41.1171 186.992 217.995 107.871 451.799 156.664C710.457 210.602 1017.83 241.433 1237.41 177.911C1456.98 114.389 1435.07 85.6874 1435.07 85.6874" stroke="white" stroke-miterlimit="10"/>
<path opacity="0.9" d="M48.9374 293.648C48.9374 293.648 226.735 214.462 461.458 263.189C721.258 316.946 933.475 302.645 1154.2 239.041C1374.92 175.437 1451.31 216.594 1451.31 216.594" stroke="white" stroke-miterlimit="10"/>
<path opacity="0.9" d="M40.9067 760.274C40.9067 760.274 223.543 827.552 454.538 763.438C710.223 692.65 922.922 692.912 1147.36 741.808C1371.8 790.705 1445.31 744.595 1445.31 744.595" stroke="white" stroke-miterlimit="10"/>
</svg>
