<svg width="1400" height="634" viewBox="0 0 1400 634" fill="none" xmlns="http://www.w3.org/2000/svg">
<g clip-path="url(#clip0_17_13532)">
<rect width="1400" height="634" fill="#204379"/>
<path opacity="0.9" d="M-1686.22 176.629C-1686.22 176.629 -1088.08 97.5076 -297.445 146.3C577.243 200.238 1616.68 231.07 2359.2 167.548C3101.71 104.026 3027.62 75.3242 3027.62 75.3242" stroke="white" stroke-miterlimit="10"/>
<path opacity="0.9" d="M-1659.78 283.285C-1659.78 283.285 -1058.53 204.098 -264.781 252.826C613.77 306.582 1331.41 292.281 2077.82 228.678C2824.22 165.074 3082.56 206.231 3082.56 206.231" stroke="white" stroke-miterlimit="10"/>
<path opacity="0.9" d="M-1683.5 596.91C-1683.5 596.91 -1065.88 664.189 -284.743 600.074C579.893 529.287 1299.16 529.549 2058.14 578.445C2817.11 627.341 3065.7 581.232 3065.7 581.232" stroke="white" stroke-miterlimit="10"/>
</g>
<defs>
<clipPath id="clip0_17_13532">
<rect width="1400" height="634" fill="white"/>
</clipPath>
</defs>
</svg>
